<svg xmlns="http://www.w3.org/2000/svg" xmlns:xlink="http://www.w3.org/1999/xlink" id="Layer_2" data-name="Layer 2" viewBox="0 0 100 78.72"><defs><clipPath id="clippath"><path d="M11.5,40.85l-1.21,4.92c-.06.18-.09.37-.15.59-.04.25-.1.56-.17.92-.06-.3-.12-.59-.16-.82-.06-.25-.12-.48-.17-.69l-1.3-4.92h-2.27l-1.3,4.94c-.1.41-.17.71-.21.92-.06.23-.09.42-.13.63-.06-.27-.09-.54-.15-.79-.06-.25-.11-.52-.17-.77l-1.19-4.94H.05l2.92,10.34h2.61l1.26-4.42c.06-.17.14-.5.25-.96.04-.17.08-.33.1-.42.01.11.05.27.11.48.1.44.17.75.23.9l1.27,4.42h2.61l2.92-10.34h-2.85ZM19.92,51.19h2.84v-10.34h-2.84v10.34ZM36.94,40.85v5.11c0,.25.02.56.04.89.04.32.08.71.13,1.13-.21-.44-.4-.83-.58-1.15-.17-.33-.29-.56-.37-.65l-3.9-5.32h-2.71v10.34h2.71v-5.11c0-.25-.02-.56-.04-.89-.01-.33-.08-.71-.11-1.15.19.44.38.82.56,1.15.17.33.29.56.37.65l3.9,5.34h2.71v-10.34h-2.71ZM49.17,48.87v-5.71c.61,0,1.21,0,1.8.15,1.31.34,1.83,1.39,1.83,2.71s-.52,2.36-1.83,2.71c-.53.13-1.08.14-1.62.14h-.18M46.39,40.85v10.34h2.61c.77,0,1.44-.02,1.98-.08,1.78-.17,3.37-.96,4.19-2.65.69-1.5.67-3.38,0-4.88-.81-1.67-2.4-2.46-4.19-2.63-.63-.06-1.46-.1-2.44-.1h-2.15ZM94.42,43.02h.56c.21,0,.4.02.57.04.33.04.56.13.73.29.27.21.4.58.4,1.09,0,.45-.15.77-.42.98-.17.14-.42.21-.71.27-.19.04-.38.04-.61.04h-.52v-2.71ZM91.76,40.85v10.34h2.65v-4.05l1.13,1.94,1.23,2.11h3.17l-2.81-4.17c.75-.16,1.33-.5,1.71-1,.4-.5.59-1.15.59-1.94,0-.54-.1-1.02-.31-1.46-.19-.43-.48-.79-.85-1.08-.33-.25-.72-.42-1.17-.54-.35-.08-.87-.12-1.57-.14-.27-.02-.54-.02-.85-.02h-2.94ZM78.01,48.23c-.5-.58-.75-1.31-.75-2.19s.25-1.59.76-2.17c.5-.58,1.16-.86,1.94-.86s1.4.29,1.92.86c.52.58.76,1.3.76,2.17s-.24,1.6-.76,2.17c-.5.58-1.16.87-1.92.87-.81,0-1.46-.29-1.96-.85M77.93,41.24c-.65.28-1.22.65-1.69,1.14-.52.48-.9,1.05-1.16,1.66-.28.62-.4,1.3-.4,2s.13,1.37.4,1.99c.26.63.64,1.2,1.16,1.68.48.5,1.05.86,1.69,1.14.64.26,1.33.38,2.04.38s1.36-.13,2.01-.38c.66-.28,1.23-.65,1.73-1.14.51-.48.88-1.03,1.16-1.66.26-.62.39-1.29.39-2.01s-.13-1.38-.4-2c-.26-.63-.65-1.18-1.14-1.66-.48-.49-1.07-.86-1.71-1.14-.64-.26-1.33-.39-2.02-.39s-1.4.13-2.04.39M62.64,41.71c-.65.59-.98,1.37-.98,2.33,0,.72.21,1.31.61,1.72.43.43,1.13.78,2.15,1.04.73.18,1.21.37,1.42.56.21.16.31.42.31.76,0,.29-.12.55-.37.74-.23.2-.53.29-.92.29s-.81-.11-1.21-.35c-.4-.22-.83-.56-1.25-1.02l-1.26,2.02c.55.5,1.11.87,1.71,1.11.6.24,1.25.35,1.97.35,1.21,0,2.17-.32,2.88-.96.73-.65,1.08-1.48,1.08-2.53,0-.42-.06-.8-.19-1.15-.11-.33-.3-.63-.56-.87-.36-.37-1.11-.7-2.27-1l-.11-.04c-.54-.13-.88-.28-1.08-.43-.19-.15-.29-.35-.29-.59s.12-.44.32-.61c.22-.15.48-.22.83-.22.33,0,.66.05.99.2.33.13.66.33.98.59l.89-1.96c-.46-.3-.94-.52-1.46-.66-.5-.15-1.04-.23-1.61-.23-1.06,0-1.9.3-2.58.91" style="fill: none; stroke-width: 0px;"></path></clipPath><linearGradient id="linear-gradient" x1="-100.04" y1="1217.39" x2="-98.91" y2="1217.39" gradientTransform="translate(37021.24 452576.06) scale(371.72 -371.72)" gradientUnits="userSpaceOnUse"><stop offset="0" stop-color="#60531c"></stop><stop offset=".61" stop-color="#ffdc8f"></stop><stop offset="1" stop-color="#64541e"></stop></linearGradient><clipPath id="clippath-1"><path d="M.64,60.06h.82c.53,0,.9.1,1.14.29.23.17.35.47.35.88,0,.37-.12.67-.35.84-.23.2-.59.3-1.08.3h-.88v-2.32ZM.05,59.47v6.04h.59v-2.55h.8c.34,0,.63-.02.84-.06.21-.06.41-.14.57-.23.24-.16.41-.36.55-.63.12-.26.2-.53.2-.84s-.08-.61-.21-.86c-.16-.26-.35-.45-.61-.61-.16-.1-.33-.15-.57-.2-.22-.04-.51-.06-.88-.06H.05ZM9.65,59.47v6.04h2.73v-.59h-2.12v-5.45h-.6ZM20.32,60.04l1.15,3.02h-2.27l1.12-3.02ZM19.98,59.47l-2.33,6.04h.62l.71-1.9h2.68l.73,1.9h.63l-2.34-6.04h-.71ZM28.51,59.47v.59h2.65l-2.82,4.88v.57h3.56v-.59h-2.88l2.83-4.88v-.57h-3.34ZM39.8,60.04l1.14,3.02h-2.28l1.14-3.02ZM39.45,59.47l-2.33,6.04h.62l.73-1.9h2.66l.73,1.9h.65l-2.34-6.04h-.72ZM60.73,59.47v2.7h-2.86v-2.7h-.59v6.04h.59v-2.76h2.86v2.76h.59v-6.04h-.59ZM78.84,59.47v.59h1.2v5.45h.59v-5.45h1.22v-.59h-3ZM87.72,59.47v6.04h3.11v-.59h-2.53v-2.16h2.53v-.59h-2.53v-2.12h2.53v-.59h-3.11ZM97.23,59.47v6.04h2.72v-.59h-2.12v-5.45h-.6ZM68.75,64.32c-.49-.51-.73-1.12-.73-1.86,0-.35.08-.73.26-1.08.16-.33.39-.65.67-.88.24-.17.47-.33.73-.41.26-.1.53-.16.8-.16.69,0,1.28.25,1.75.75.49.51.74,1.1.74,1.78,0,.72-.23,1.35-.72,1.84-.47.51-1.04.77-1.73.77s-1.29-.26-1.76-.75M69.34,59.57c-.37.15-.69.37-.99.67-.31.29-.55.63-.7,1.02-.16.37-.24.78-.24,1.19,0,.9.3,1.64.88,2.25.59.61,1.31.92,2.17.92.45,0,.86-.1,1.26-.26.39-.17.72-.43,1.04-.76.28-.29.47-.62.59-.98.14-.35.22-.75.22-1.17s-.08-.82-.23-1.22c-.16-.37-.4-.71-.69-1-.31-.3-.63-.51-1-.67-.35-.14-.74-.22-1.17-.22s-.78.08-1.13.22" style="fill: none; stroke-width: 0px;"></path></clipPath><linearGradient id="linear-gradient-2" x1="-100.04" y1="1217.38" x2="-98.91" y2="1217.38" gradientTransform="translate(37021.24 452590.71) scale(371.72 -371.72)" xlink:href="#linear-gradient"></linearGradient><clipPath id="clippath-2"><path d="M48.26,62.49c0,.91.77,1.67,1.72,1.67s1.76-.76,1.76-1.67-.79-1.66-1.76-1.66-1.72.74-1.72,1.66" style="fill: none; stroke-width: 0px;"></path></clipPath><linearGradient id="linear-gradient-3" x1="-100.04" y1="1217.38" x2="-98.91" y2="1217.38" gradientTransform="translate(37021.24 452590.71) scale(371.72 -371.72)" xlink:href="#linear-gradient"></linearGradient><clipPath id="clippath-3"><path d="M29.13,71.34c-.15.19-.23.45-.23.77,0,.23.05.43.17.58.11.15.28.27.51.35l.08.03c.27.09.41.25.41.48,0,.14-.03.25-.1.33l-.27.12-.26-.13c-.06-.09-.1-.21-.1-.35v-.05h-.52c0,.34.08.62.25.82.16.21.37.31.63.31.28,0,.5-.11.67-.32.17-.21.25-.5.25-.85,0-.23-.05-.42-.14-.57-.1-.15-.25-.26-.45-.34l-.18-.07c-.18-.06-.3-.12-.36-.19l-.05-.1-.02-.13.08-.28.23-.1.23.1.09.26v.03h.52c-.02-.31-.1-.55-.24-.72-.14-.17-.33-.26-.57-.26-.26,0-.46.1-.61.29M52.02,71.18c-.18.08-.35.21-.49.37-.15.18-.27.37-.35.58-.08.21-.12.44-.12.67s.03.45.1.66c.06.21.16.39.28.55.15.2.32.34.51.44.19.1.4.15.62.15.3,0,.57-.09.81-.26.24-.18.43-.42.57-.74.04-.11.08-.23.1-.36.03-.13.04-.26.04-.41v-.06s0-.06,0-.06h-1.84v.57h1.16c-.07.19-.18.34-.33.46-.14.11-.31.17-.49.17-.26,0-.48-.11-.66-.32-.18-.21-.27-.47-.27-.78s.09-.55.27-.76c.18-.21.39-.32.64-.32.14,0,.27.03.39.09.12.06.22.15.3.27h.7c-.13-.34-.3-.61-.53-.78-.23-.18-.5-.27-.82-.27-.21,0-.42.04-.59.12M61.05,73.82l-.31-.26c-.08-.11-.15-.22-.19-.35-.04-.13-.07-.27-.07-.41,0-.29.09-.54.27-.74.18-.21.4-.31.66-.31.24,0,.45.1.63.31.18.2.26.45.26.74,0,.32-.09.58-.26.8-.17.21-.39.32-.65.32-.12,0-.24-.03-.36-.09M60.7,71.26c-.22.13-.4.32-.55.57-.09.14-.15.3-.2.46-.04.17-.06.34-.06.53,0,.24.04.47.11.68.07.21.18.4.31.57.14.18.31.32.49.41.18.09.39.13.61.13.2,0,.4-.04.59-.14.19-.09.36-.23.5-.4.14-.17.25-.35.32-.57.08-.22.11-.44.11-.69,0-.23-.04-.46-.12-.67-.07-.21-.18-.41-.33-.58-.14-.16-.3-.29-.49-.37-.18-.09-.37-.13-.57-.13-.26,0-.5.07-.72.2M37.52,72.16l.35,1.1h-.71l.36-1.1ZM37.28,71.04l-1.14,3.56h.6l.23-.75h1.1l.23.75h.62l-1.13-3.56h-.5ZM44.6,74.6h.58v-3.56h-.58v3.56ZM70.62,71.04v2.28l-1.22-2.28h-.55v3.56h.57v-2.35l1.23,2.35h.53v-3.56h-.57Z" style="fill: none; stroke-width: 0px;"></path></clipPath><linearGradient id="linear-gradient-4" x1="-100.04" y1="1217.38" x2="-98.91" y2="1217.38" gradientTransform="translate(37021.24 452599.9) scale(371.72 -371.72)" xlink:href="#linear-gradient"></linearGradient><clipPath id="clippath-4"><rect x=".09" y="76.85" width="99.81" height="1.87" style="fill: none; stroke-width: 0px;"></rect></clipPath><linearGradient id="linear-gradient-5" x1="-100.04" y1="1217.38" x2="-98.91" y2="1217.38" gradientTransform="translate(37021.24 452604.32) scale(371.72 -371.72)" xlink:href="#linear-gradient"></linearGradient><clipPath id="clippath-5"><rect x="74.61" y="72.4" width="25.39" height=".85" style="fill: none; stroke-width: 0px;"></rect></clipPath><linearGradient id="linear-gradient-6" x1="-100.04" y1="1217.38" x2="-98.91" y2="1217.38" gradientTransform="translate(37021.24 452599.91) scale(371.72 -371.72)" xlink:href="#linear-gradient"></linearGradient><clipPath id="clippath-6"><rect y="72.4" width="25.04" height=".85" style="fill: none; stroke-width: 0px;"></rect></clipPath><linearGradient id="linear-gradient-7" x1="-100.04" y1="1217.38" x2="-98.91" y2="1217.38" gradientTransform="translate(37021.24 452599.91) scale(371.72 -371.72)" xlink:href="#linear-gradient"></linearGradient><clipPath id="clippath-7"><rect x=".09" y="75.28" width="99.81" height=".32" style="fill: none; stroke-width: 0px;"></rect></clipPath><linearGradient id="linear-gradient-8" x1="-100.04" y1="1217.38" x2="-98.91" y2="1217.38" gradientTransform="translate(37021.24 452602.23) scale(371.72 -371.72)" xlink:href="#linear-gradient"></linearGradient><clipPath id="clippath-8"><path d="M16.71,33.48c0,.21,1,.39,2.21.39s2.21-.19,2.21-.39-.98-.4-2.21-.4-2.21.19-2.21.4M78.87,33.48c0,.21.98.39,2.21.39s2.21-.19,2.21-.39-1-.4-2.21-.4-2.21.19-2.21.4M0,33.25c0,.21,1.32.38,2.95.38s2.93-.17,2.93-.38c0-.23-1.32-.4-2.93-.4s-2.95.17-2.95.4M94.1,33.25c0,.21,1.32.38,2.95.38s2.95-.17,2.95-.38c0-.23-1.32-.4-2.95-.4s-2.95.17-2.95.4M23.34,31.6c0,.48,1.44.87,3.2.87s3.2-.4,3.2-.87-1.44-.85-3.2-.85-3.2.38-3.2.85M70.76,31.6c0,.48,1.44.87,3.2.87s3.2-.4,3.2-.87-1.44-.85-3.2-.85-3.2.38-3.2.85M7.6,31.38c0,.47,1.32.85,2.95.85s2.95-.38,2.95-.85-1.32-.85-2.95-.85-2.95.38-2.95.85M86.97,31.38c0,.47,1.34.85,2.95.85s2.95-.38,2.95-.85-1.32-.85-2.95-.85-2.95.38-2.95.85M31.45,27.88c0,.85,1.44,1.56,3.2,1.56s3.2-.71,3.2-1.56-1.44-1.57-3.2-1.57-3.2.7-3.2,1.57M61.66,27.88c0,.85,1.43,1.56,3.2,1.56s3.2-.71,3.2-1.56-1.44-1.57-3.2-1.57-3.2.7-3.2,1.57M15.72,27.41c0,.85,1.44,1.55,3.2,1.55s3.2-.7,3.2-1.55-1.44-1.55-3.2-1.55-3.2.7-3.2,1.55M77.89,27.41c0,.85,1.44,1.55,3.2,1.55s3.2-.7,3.2-1.55-1.44-1.55-3.2-1.55-3.2.7-3.2,1.55M23.34,22.74c0,1.12,1.44,2.02,3.2,2.02s3.2-.91,3.2-2.02-1.44-2.03-3.2-2.03-3.2.91-3.2,2.03M38.82,22.74c0,1.12,1.44,2.02,3.2,2.02s3.2-.91,3.2-2.02-1.44-2.03-3.2-2.03-3.2.91-3.2,2.03M53.79,22.74c0,1.12,1.44,2.02,3.2,2.02s3.19-.91,3.19-2.02-1.44-2.03-3.19-2.03-3.2.91-3.2,2.03M70.76,22.74c0,1.12,1.44,2.02,3.19,2.02s3.2-.91,3.2-2.02-1.44-2.03-3.2-2.03-3.19.91-3.19,2.03M30.96,17.29c0,1.29,1.65,2.33,3.69,2.33s3.69-1.04,3.69-2.33-1.66-2.34-3.69-2.34-3.69,1.06-3.69,2.34M46.19,17.29c0,1.29,1.66,2.33,3.67,2.33s3.69-1.04,3.69-2.33-1.64-2.34-3.69-2.34-3.67,1.06-3.67,2.34M61.17,17.29c0,1.29,1.66,2.33,3.69,2.33s3.69-1.04,3.69-2.33-1.66-2.34-3.69-2.34-3.69,1.06-3.69,2.34M38.34,10.74c0,1.93,1.65,3.5,3.69,3.5s3.67-1.57,3.67-3.5-1.65-3.5-3.67-3.5-3.69,1.57-3.69,3.5M53.3,10.74c0,1.93,1.67,3.5,3.69,3.5s3.69-1.57,3.69-3.5-1.64-3.5-3.69-3.5-3.69,1.57-3.69,3.5M46.19,3.5c0,1.93,1.66,3.5,3.67,3.5s3.69-1.57,3.69-3.5-1.64-3.5-3.69-3.5-3.67,1.57-3.67,3.5" style="fill: none; stroke-width: 0px;"></path></clipPath><linearGradient id="linear-gradient-9" x1="-100.04" y1="1217.39" x2="-98.91" y2="1217.39" gradientTransform="translate(37021.24 452550.17) scale(371.72 -371.72)" xlink:href="#linear-gradient"></linearGradient></defs><g id="Layer_1-2" data-name="Layer 1"><g><g style="clip-path: url(#clippath);"><rect x=".05" y="40.8" width="99.9" height="10.46" style="fill: url(#linear-gradient); stroke-width: 0px;"></rect></g><g style="clip-path: url(#clippath-1);"><rect x=".05" y="59.35" width="99.9" height="6.28" style="fill: url(#linear-gradient-2); stroke-width: 0px;"></rect></g><g style="clip-path: url(#clippath-2);"><rect x="48.26" y="60.83" width="3.48" height="3.33" style="fill: url(#linear-gradient-3); stroke-width: 0px;"></rect></g><g style="clip-path: url(#clippath-3);"><rect x="28.81" y="71.04" width="42.37" height="3.56" style="fill: url(#linear-gradient-4); stroke-width: 0px;"></rect></g><g style="clip-path: url(#clippath-4);"><rect x=".09" y="76.85" width="99.81" height="1.87" style="fill: url(#linear-gradient-5); stroke-width: 0px;"></rect></g><g style="clip-path: url(#clippath-5);"><rect x="74.61" y="72.4" width="25.39" height=".85" style="fill: url(#linear-gradient-6); stroke-width: 0px;"></rect></g><g style="clip-path: url(#clippath-6);"><rect y="72.4" width="25.04" height=".85" style="fill: url(#linear-gradient-7); stroke-width: 0px;"></rect></g><g style="clip-path: url(#clippath-7);"><rect x=".09" y="75.28" width="99.81" height=".32" style="fill: url(#linear-gradient-8); stroke-width: 0px;"></rect></g><g style="clip-path: url(#clippath-8);"><rect y="0" width="100" height="33.88" style="fill: url(#linear-gradient-9); stroke-width: 0px;"></rect></g></g></g></svg>